<svg id="Layer_1" data-name="Layer 1" xmlns="http://www.w3.org/2000/svg" viewBox="0 0 62.49 18.68"><defs><style>.cls-1{fill:#fff;}.cls-2{fill:#06e5d8;}</style></defs><title>logo</title><path class="cls-1" d="M8.39,22.35A1.54,1.54,0,0,0,8,22.08,1,1,0,0,0,7.55,22a.64.64,0,0,0-.42.13.41.41,0,0,0-.16.33.36.36,0,0,0,.08.23.8.8,0,0,0,.21.15,1.34,1.34,0,0,0,.3.12l.32.1a2,2,0,0,1,.94.6,1.5,1.5,0,0,1,.3,1,2,2,0,0,1-.13.74,1.55,1.55,0,0,1-.38.56,1.59,1.59,0,0,1-.62.36,2.31,2.31,0,0,1-.82.13,3,3,0,0,1-1.77-.59L6,24.72a2.24,2.24,0,0,0,.58.4,1.31,1.31,0,0,0,.57.13.69.69,0,0,0,.48-.15.49.49,0,0,0,.15-.35.46.46,0,0,0,0-.21.46.46,0,0,0-.13-.16.83.83,0,0,0-.25-.13L7,24.11l-.5-.19A1.3,1.3,0,0,1,6,23.65a1.21,1.21,0,0,1-.31-.42,1.49,1.49,0,0,1-.12-.64,1.8,1.8,0,0,1,.13-.71,1.7,1.7,0,0,1,.34-.55A1.57,1.57,0,0,1,6.62,21a2.11,2.11,0,0,1,.73-.13,3.12,3.12,0,0,1,.78.11,3.29,3.29,0,0,1,.78.32Z" transform="translate(-5.4 -7.73)"/><path class="cls-1" d="M9.71,23.63a2.82,2.82,0,0,1,.21-1.09,2.65,2.65,0,0,1,.58-.88,2.48,2.48,0,0,1,.88-.59,2.9,2.9,0,0,1,1.12-.22,3,3,0,0,1,1.13.22,2.68,2.68,0,0,1,1.46,1.47,2.82,2.82,0,0,1,.21,1.09,2.87,2.87,0,0,1-.21,1.1,2.75,2.75,0,0,1-.58.88,2.67,2.67,0,0,1-.88.59,3,3,0,0,1-1.13.21,2.9,2.9,0,0,1-1.12-.21,2.48,2.48,0,0,1-.88-.59,2.75,2.75,0,0,1-.58-.88A2.87,2.87,0,0,1,9.71,23.63Zm1.38,0a1.36,1.36,0,0,0,.11.58,1.33,1.33,0,0,0,.31.46A1.57,1.57,0,0,0,12,25a1.41,1.41,0,0,0,.54.11,1.46,1.46,0,0,0,.55-.11,1.57,1.57,0,0,0,.45-.31,1.33,1.33,0,0,0,.31-.46,1.37,1.37,0,0,0,.12-.58,1.4,1.4,0,0,0-.12-.58,1.44,1.44,0,0,0-.31-.46,1.37,1.37,0,0,0-.45-.3,1.46,1.46,0,0,0-.55-.11,1.41,1.41,0,0,0-.54.11,1.37,1.37,0,0,0-.45.3,1.44,1.44,0,0,0-.31.46A1.4,1.4,0,0,0,11.09,23.63Z" transform="translate(-5.4 -7.73)"/><path class="cls-1" d="M16.13,26.26V21h1.31l2.42,3.22V21h1.3v5.26h-1.3l-2.42-3.21v3.21Z" transform="translate(-5.4 -7.73)"/><path class="cls-1" d="M22.05,23.63a2.82,2.82,0,0,1,.21-1.09,2.62,2.62,0,0,1,.57-.88,2.67,2.67,0,0,1,.88-.59,3,3,0,0,1,2.25,0,2.57,2.57,0,0,1,.88.59,2.65,2.65,0,0,1,.58.88,2.82,2.82,0,0,1,.21,1.09,2.87,2.87,0,0,1-.21,1.1,2.75,2.75,0,0,1-.58.88,2.57,2.57,0,0,1-.88.59,3.12,3.12,0,0,1-2.25,0,2.67,2.67,0,0,1-.88-.59,2.72,2.72,0,0,1-.57-.88A2.87,2.87,0,0,1,22.05,23.63Zm1.37,0a1.54,1.54,0,0,0,.11.58,1.49,1.49,0,0,0,.31.46,1.57,1.57,0,0,0,.45.31,1.41,1.41,0,0,0,1.09,0,1.77,1.77,0,0,0,.46-.31,1.49,1.49,0,0,0,.31-.46,1.54,1.54,0,0,0,.11-.58,1.58,1.58,0,0,0-.11-.58,1.62,1.62,0,0,0-.31-.46,1.52,1.52,0,0,0-.46-.3,1.41,1.41,0,0,0-1.09,0,1.37,1.37,0,0,0-.45.3,1.62,1.62,0,0,0-.31.46A1.58,1.58,0,0,0,23.42,23.63Z" transform="translate(-5.4 -7.73)"/><path class="cls-1" d="M32.65,26.26H31l-1.25-2v2H28.46V21h2a1.83,1.83,0,0,1,.73.13,1.4,1.4,0,0,1,.52.35,1.44,1.44,0,0,1,.31.52,1.81,1.81,0,0,1,.1.63,1.55,1.55,0,0,1-.28,1,1.36,1.36,0,0,1-.81.51Zm-2.88-2.91H30a.94.94,0,0,0,.59-.16.61.61,0,0,0,.21-.49.57.57,0,0,0-.21-.48.94.94,0,0,0-.59-.16h-.25Z" transform="translate(-5.4 -7.73)"/><path class="cls-1" d="M36.29,25.35H34.41l-.3.91H32.72L34.64,21h1.43L38,26.26H36.59Zm-.35-1-.59-1.75-.59,1.75Z" transform="translate(-5.4 -7.73)"/><path class="cls-1" d="M41.61,21.51a1.26,1.26,0,0,0-.53-.32,4.12,4.12,0,0,0-.93-.08H39.4v5.05H40V24h.46a1.65,1.65,0,0,0,1.17-.39A1.35,1.35,0,0,0,42,22.56,1.43,1.43,0,0,0,41.61,21.51Zm-.42,1.75a1.34,1.34,0,0,1-.85.24H40V21.63h.35a1.49,1.49,0,0,1,.88.22.84.84,0,0,1,.31.7A.87.87,0,0,1,41.19,23.26Z" transform="translate(-5.4 -7.73)"/><path class="cls-1" d="M46,26.16l-1.45-2.08L44.43,24l.16,0a1.29,1.29,0,0,0,.75-.48,1.41,1.41,0,0,0,.28-.89,1.37,1.37,0,0,0-.45-1.08,2.12,2.12,0,0,0-1.38-.36H43v5.05h.55V24h.3l1.44,2.15Zm-2.31-2.64h-.1V21.64h.37a1.37,1.37,0,0,1,.86.23.83.83,0,0,1,.3.69.9.9,0,0,1-.31.73,1.42,1.42,0,0,1-.88.23Z" transform="translate(-5.4 -7.73)"/><rect class="cls-1" x="41.64" y="13.38" width="0.55" height="5.05"/><polygon class="cls-1" points="47.86 13.24 46.12 17.23 44.43 13.24 43.45 18.43 44.02 18.43 44.61 14.98 46.1 18.51 47.64 14.98 48.17 18.43 48.74 18.43 47.86 13.24"/><path class="cls-1" d="M59.49,26.16l-2.25-5.23-2.33,5.23h.59l.56-1.28h2.3l.53,1.28Zm-3.21-1.81.95-2.17.84,2,.06.15Z" transform="translate(-5.4 -7.73)"/><path class="cls-2" d="M59.28,19.25V7.88a4.5,4.5,0,0,0-3.6,4.35v.69l1.68,0a.66.66,0,0,1,.65.66v.27a.66.66,0,0,1-.66.65l-1.69,0v1.59h1.68a.66.66,0,0,1,.65.66V17a.66.66,0,0,1-.66.65l-1.69,0v1.59Z" transform="translate(-5.4 -7.73)"/><path class="cls-2" d="M62.43,12.92l5.45.05v-.69a4.49,4.49,0,0,0-4.43-4.52l-3.09,0V21.46a5,5,0,0,0,.31,2.22c.36.62,1.7.56,2.47.56H65a2.78,2.78,0,0,0,2.78-2.78v-.59l-5.46-.05a.66.66,0,0,1-.64-.66v-.27a.66.66,0,0,1,.66-.65l5.45.06,0-1.59-5.46-.05a.66.66,0,0,1-.64-.66v-.27a.66.66,0,0,1,.66-.65l5.45.05,0-1.58-5.46-.05a.66.66,0,0,1-.64-.66v-.28A.66.66,0,0,1,62.43,12.92Z" transform="translate(-5.4 -7.73)"/></svg>